<svg xmlns="http://www.w3.org/2000/svg" xmlns:xlink="http://www.w3.org/1999/xlink" width="500" zoomAndPan="magnify" viewBox="0 0 375 374.999991" height="500" preserveAspectRatio="xMidYMid meet" version="1.0"><defs><g/><clipPath id="id1"><path d="M 160 141 L 215 141 L 215 226.082031 L 160 226.082031 Z M 160 141 " clip-rule="nonzero"/></clipPath><clipPath id="id2"><path d="M 121 141 L 188 141 L 188 226.082031 L 121 226.082031 Z M 121 141 " clip-rule="nonzero"/></clipPath><clipPath id="id3"><path d="M 113 141 L 188 141 L 188 226.082031 L 113 226.082031 Z M 113 141 " clip-rule="nonzero"/></clipPath><clipPath id="id4"><path d="M 121 88.082031 L 161 88.082031 L 161 142 L 121 142 Z M 121 88.082031 " clip-rule="nonzero"/></clipPath><clipPath id="id5"><path d="M 187 141 L 254 141 L 254 226.082031 L 187 226.082031 Z M 187 141 " clip-rule="nonzero"/></clipPath><clipPath id="id6"><path d="M 187 141 L 262 141 L 262 226.082031 L 187 226.082031 Z M 187 141 " clip-rule="nonzero"/></clipPath><clipPath id="id7"><path d="M 214 88.082031 L 254 88.082031 L 254 142 L 214 142 Z M 214 88.082031 " clip-rule="nonzero"/></clipPath></defs><g clip-path="url(#id1)"><path fill="#e24329" d="M 187.511719 226.066406 L 214.910156 141.582031 L 160.121094 141.582031 Z M 187.511719 226.066406 " fill-opacity="1" fill-rule="nonzero"/></g><g clip-path="url(#id2)"><path fill="#fc6d26" d="M 187.511719 226.066406 L 160.121094 141.582031 L 121.726562 141.582031 L 187.507812 226.066406 Z M 187.511719 226.066406 " fill-opacity="1" fill-rule="nonzero"/></g><g clip-path="url(#id3)"><path fill="#fca326" d="M 121.726562 141.582031 L 113.402344 167.257812 C 112.640625 169.601562 113.472656 172.164062 115.460938 173.609375 L 187.515625 226.066406 L 121.730469 141.582031 Z M 121.726562 141.582031 " fill-opacity="1" fill-rule="nonzero"/></g><g clip-path="url(#id4)"><path fill="#e24329" d="M 121.726562 141.582031 L 160.121094 141.582031 L 143.621094 90.699219 C 142.769531 88.082031 139.074219 88.082031 138.226562 90.699219 L 121.726562 141.585938 Z M 121.726562 141.582031 " fill-opacity="1" fill-rule="nonzero"/></g><g clip-path="url(#id5)"><path fill="#fc6d26" d="M 187.511719 226.066406 L 214.910156 141.582031 L 253.300781 141.582031 Z M 187.511719 226.066406 " fill-opacity="1" fill-rule="nonzero"/></g><g clip-path="url(#id6)"><path fill="#fca326" d="M 253.300781 141.582031 L 261.628906 167.257812 C 262.382812 169.601562 261.554688 172.164062 259.570312 173.609375 L 187.511719 226.066406 Z M 253.300781 141.582031 " fill-opacity="1" fill-rule="nonzero"/></g><g clip-path="url(#id7)"><path fill="#e24329" d="M 253.300781 141.582031 L 214.910156 141.582031 L 231.410156 90.699219 C 232.257812 88.082031 235.957031 88.082031 236.800781 90.699219 L 253.300781 141.585938 Z M 253.300781 141.582031 " fill-opacity="1" fill-rule="nonzero"/></g><g fill="#000000" fill-opacity="1"><g transform="translate(100.804951, 266.316015)"><g><path d="M 21.15625 -21.71875 L 21.15625 0 L 15.125 0 L 15.125 -8.71875 L 7.765625 -8.71875 L 7.765625 0 L 1.71875 0 L 1.71875 -21.71875 L 7.765625 -21.71875 L 7.765625 -13.546875 L 15.125 -13.546875 L 15.125 -21.71875 Z M 21.15625 -21.71875 "/></g></g></g><g fill="#000000" fill-opacity="1"><g transform="translate(126.793152, 266.316015)"><g><path d="M 7.765625 -16.875 L 7.765625 -13.328125 L 14.6875 -13.328125 L 14.6875 -8.75 L 7.765625 -8.75 L 7.765625 -4.828125 L 15.609375 -4.828125 L 15.609375 0 L 1.71875 0 L 1.71875 -21.71875 L 15.609375 -21.71875 L 15.609375 -16.875 Z M 7.765625 -16.875 "/></g></g></g><g fill="#000000" fill-opacity="1"><g transform="translate(146.777066, 266.316015)"><g><path d="M 12.71875 0 L 8.40625 -8 L 7.765625 -8 L 7.765625 0 L 1.71875 0 L 1.71875 -21.71875 L 11.234375 -21.71875 C 12.984375 -21.71875 14.460938 -21.410156 15.671875 -20.796875 C 16.890625 -20.191406 17.804688 -19.359375 18.421875 -18.296875 C 19.035156 -17.242188 19.34375 -16.0625 19.34375 -14.75 C 19.34375 -13.269531 18.9375 -11.96875 18.125 -10.84375 C 17.3125 -9.726562 16.125 -8.9375 14.5625 -8.46875 L 19.46875 0 Z M 7.765625 -12.140625 L 10.75 -12.140625 C 11.570312 -12.140625 12.1875 -12.332031 12.59375 -12.71875 C 13.007812 -13.101562 13.21875 -13.664062 13.21875 -14.40625 C 13.21875 -15.101562 13.003906 -15.648438 12.578125 -16.046875 C 12.160156 -16.453125 11.550781 -16.65625 10.75 -16.65625 L 7.765625 -16.65625 Z M 7.765625 -12.140625 "/></g></g></g><g fill="#000000" fill-opacity="1"><g transform="translate(170.240392, 266.316015)"><g><path d="M 7.765625 -21.71875 L 7.765625 0 L 1.71875 0 L 1.71875 -21.71875 Z M 7.765625 -21.71875 "/></g></g></g><g fill="#000000" fill-opacity="1"><g transform="translate(182.834419, 266.316015)"><g><path d="M 18.078125 -21.71875 L 18.078125 -16.90625 L 12.28125 -16.90625 L 12.28125 0 L 6.25 0 L 6.25 -16.90625 L 0.53125 -16.90625 L 0.53125 -21.71875 Z M 18.078125 -21.71875 "/></g></g></g><g fill="#000000" fill-opacity="1"><g transform="translate(204.542647, 266.316015)"><g><path d="M 15.453125 -3.546875 L 7.765625 -3.546875 L 6.59375 0 L 0.25 0 L 8.15625 -21.71875 L 15.125 -21.71875 L 23 0 L 16.625 0 Z M 13.953125 -8.15625 L 11.609375 -15.1875 L 9.296875 -8.15625 Z M 13.953125 -8.15625 "/></g></g></g><g fill="#000000" fill-opacity="1"><g transform="translate(230.90035, 266.316015)"><g><path d="M 15.578125 -14.5625 C 15.234375 -15.132812 14.757812 -15.578125 14.15625 -15.890625 C 13.550781 -16.203125 12.835938 -16.359375 12.015625 -16.359375 C 10.492188 -16.359375 9.296875 -15.863281 8.421875 -14.875 C 7.546875 -13.882812 7.109375 -12.5625 7.109375 -10.90625 C 7.109375 -9.03125 7.578125 -7.601562 8.515625 -6.625 C 9.453125 -5.65625 10.8125 -5.171875 12.59375 -5.171875 C 14.707031 -5.171875 16.21875 -6.125 17.125 -8.03125 L 11.0625 -8.03125 L 11.0625 -12.375 L 22.328125 -12.375 L 22.328125 -6.53125 C 21.859375 -5.375 21.164062 -4.289062 20.25 -3.28125 C 19.332031 -2.28125 18.175781 -1.457031 16.78125 -0.8125 C 15.382812 -0.164062 13.796875 0.15625 12.015625 0.15625 C 9.835938 0.15625 7.910156 -0.3125 6.234375 -1.25 C 4.554688 -2.1875 3.257812 -3.488281 2.34375 -5.15625 C 1.4375 -6.832031 0.984375 -8.75 0.984375 -10.90625 C 0.984375 -13.039062 1.4375 -14.941406 2.34375 -16.609375 C 3.257812 -18.285156 4.550781 -19.585938 6.21875 -20.515625 C 7.882812 -21.453125 9.804688 -21.921875 11.984375 -21.921875 C 14.710938 -21.921875 16.96875 -21.265625 18.75 -19.953125 C 20.539062 -18.640625 21.648438 -16.84375 22.078125 -14.5625 Z M 15.578125 -14.5625 "/></g></g></g><g fill="#000000" fill-opacity="1"><g transform="translate(257.319627, 266.316015)"><g><path d="M 7.765625 -16.875 L 7.765625 -13.328125 L 14.6875 -13.328125 L 14.6875 -8.75 L 7.765625 -8.75 L 7.765625 -4.828125 L 15.609375 -4.828125 L 15.609375 0 L 1.71875 0 L 1.71875 -21.71875 L 15.609375 -21.71875 L 15.609375 -16.875 Z M 7.765625 -16.875 "/></g></g></g><g fill="#000000" fill-opacity="1"><g transform="translate(127.562463, 283.686556)"><g><path d="M 2.875 -0.046875 C 2.875 -0.015625 2.859375 0 2.828125 0 L 0.078125 0 C 0.046875 0 0.03125 -0.015625 0.03125 -0.046875 L 0.03125 -0.171875 C 0.03125 -0.203125 0.0507812 -0.21875 0.09375 -0.21875 C 0.59375 -0.238281 0.925781 -0.5 1.09375 -1 L 3.3125 -7.390625 C 3.3125 -7.398438 3.3125 -7.410156 3.3125 -7.421875 L 3.25 -7.59375 C 3.25 -7.613281 3.253906 -7.625 3.265625 -7.625 L 4.359375 -7.625 C 4.359375 -7.625 4.363281 -7.617188 4.375 -7.609375 C 4.394531 -7.609375 4.40625 -7.597656 4.40625 -7.578125 L 6.703125 -1.15625 C 6.753906 -1.0625 6.796875 -0.972656 6.828125 -0.890625 C 6.859375 -0.816406 6.890625 -0.75 6.921875 -0.6875 C 7.015625 -0.53125 7.160156 -0.414062 7.359375 -0.34375 C 7.523438 -0.257812 7.675781 -0.21875 7.8125 -0.21875 C 7.84375 -0.21875 7.859375 -0.203125 7.859375 -0.171875 L 7.859375 -0.046875 C 7.859375 -0.015625 7.84375 0 7.8125 0 L 4.5 0 C 4.46875 0 4.453125 -0.015625 4.453125 -0.046875 L 4.453125 -0.171875 C 4.453125 -0.203125 4.519531 -0.21875 4.65625 -0.21875 C 4.789062 -0.226562 4.898438 -0.238281 4.984375 -0.25 C 5.484375 -0.300781 5.734375 -0.46875 5.734375 -0.75 C 5.734375 -0.78125 5.734375 -0.804688 5.734375 -0.828125 L 4.90625 -3.140625 C 4.90625 -3.140625 4.898438 -3.15625 4.890625 -3.1875 C 4.847656 -3.3125 4.769531 -3.375 4.65625 -3.375 L 2.75 -3.375 C 2.632812 -3.375 2.546875 -3.3125 2.484375 -3.1875 C 2.472656 -3.164062 2.46875 -3.148438 2.46875 -3.140625 L 1.65625 -0.78125 L 1.65625 -0.71875 C 1.65625 -0.625 1.707031 -0.539062 1.8125 -0.46875 C 2.03125 -0.300781 2.320312 -0.21875 2.6875 -0.21875 L 2.828125 -0.21875 C 2.859375 -0.21875 2.875 -0.203125 2.875 -0.171875 Z M 4.484375 -3.96875 C 4.546875 -3.96875 4.578125 -3.992188 4.578125 -4.046875 C 4.578125 -4.078125 4.566406 -4.113281 4.546875 -4.15625 L 3.75 -6.359375 C 3.707031 -6.460938 3.679688 -6.515625 3.671875 -6.515625 C 3.648438 -6.515625 3.617188 -6.460938 3.578125 -6.359375 L 2.828125 -4.15625 C 2.804688 -4.113281 2.796875 -4.070312 2.796875 -4.03125 C 2.796875 -3.988281 2.828125 -3.96875 2.890625 -3.96875 Z M 4.484375 -3.96875 "/></g></g></g><g fill="#000000" fill-opacity="1"><g transform="translate(135.440919, 283.686556)"><g><path d="M 3.109375 -7.40625 C 2.503906 -7.40625 2.203125 -7.164062 2.203125 -6.6875 L 2.203125 -2.8125 C 2.203125 -2.09375 2.4375 -1.507812 2.90625 -1.0625 C 3.375 -0.613281 3.976562 -0.390625 4.71875 -0.390625 C 5.488281 -0.390625 6.117188 -0.59375 6.609375 -1 C 7.097656 -1.414062 7.34375 -1.988281 7.34375 -2.71875 L 7.34375 -6.15625 C 7.34375 -6.5 7.316406 -6.738281 7.265625 -6.875 C 7.109375 -7.226562 6.753906 -7.40625 6.203125 -7.40625 C 6.179688 -7.40625 6.171875 -7.421875 6.171875 -7.453125 L 6.171875 -7.578125 C 6.171875 -7.609375 6.179688 -7.625 6.203125 -7.625 L 8.875 -7.625 C 8.90625 -7.625 8.921875 -7.609375 8.921875 -7.578125 L 8.921875 -7.453125 C 8.921875 -7.421875 8.878906 -7.40625 8.796875 -7.40625 C 8.328125 -7.40625 8.039062 -7.222656 7.9375 -6.859375 C 7.914062 -6.796875 7.90625 -6.738281 7.90625 -6.6875 L 7.90625 -3.140625 C 7.90625 -1.554688 7.296875 -0.539062 6.078125 -0.09375 C 5.671875 0.0625 5.269531 0.140625 4.875 0.140625 C 3.425781 0.140625 2.359375 -0.234375 1.671875 -0.984375 C 1.316406 -1.378906 1.140625 -1.863281 1.140625 -2.4375 L 1.140625 -6.765625 C 1.140625 -7.066406 0.953125 -7.269531 0.578125 -7.375 C 0.472656 -7.394531 0.378906 -7.40625 0.296875 -7.40625 C 0.222656 -7.40625 0.1875 -7.421875 0.1875 -7.453125 L 0.1875 -7.578125 C 0.1875 -7.609375 0.203125 -7.625 0.234375 -7.625 L 3.171875 -7.625 C 3.191406 -7.625 3.203125 -7.609375 3.203125 -7.578125 L 3.203125 -7.453125 C 3.203125 -7.421875 3.171875 -7.40625 3.109375 -7.40625 Z M 3.109375 -7.40625 "/></g></g></g><g fill="#000000" fill-opacity="1"><g transform="translate(144.481949, 283.686556)"><g><path d="M 7.28125 -0.203125 C 7.257812 -0.171875 7.210938 -0.164062 7.140625 -0.1875 C 7.066406 -0.207031 6.984375 -0.21875 6.890625 -0.21875 C 6.796875 -0.21875 6.664062 -0.195312 6.5 -0.15625 C 6.332031 -0.113281 6.0625 -0.0546875 5.6875 0.015625 C 5.320312 0.0976562 4.988281 0.140625 4.6875 0.140625 C 4 0.140625 3.332031 -0.0195312 2.6875 -0.34375 C 2.039062 -0.664062 1.523438 -1.125 1.140625 -1.71875 C 0.753906 -2.3125 0.5625 -3 0.5625 -3.78125 C 0.5625 -4.5625 0.753906 -5.269531 1.140625 -5.90625 C 1.703125 -6.832031 2.550781 -7.4375 3.6875 -7.71875 C 4.050781 -7.8125 4.410156 -7.859375 4.765625 -7.859375 C 5.265625 -7.859375 5.851562 -7.773438 6.53125 -7.609375 C 6.738281 -7.554688 6.910156 -7.503906 7.046875 -7.453125 C 7.191406 -7.398438 7.28125 -7.375 7.3125 -7.375 L 7.46875 -7.40625 L 7.640625 -7.40625 C 7.679688 -7.40625 7.703125 -7.375 7.703125 -7.3125 L 7.703125 -5.640625 C 7.703125 -5.597656 7.671875 -5.578125 7.609375 -5.578125 C 7.546875 -5.578125 7.507812 -5.582031 7.5 -5.59375 C 7.488281 -5.613281 7.476562 -5.632812 7.46875 -5.65625 C 7.457031 -5.6875 7.441406 -5.710938 7.421875 -5.734375 C 7.410156 -5.765625 7.398438 -5.789062 7.390625 -5.8125 C 7.378906 -5.832031 7.375 -5.847656 7.375 -5.859375 C 6.832031 -6.941406 6.007812 -7.484375 4.90625 -7.484375 C 3.914062 -7.484375 3.140625 -7.164062 2.578125 -6.53125 C 2.015625 -5.90625 1.734375 -5.070312 1.734375 -4.03125 C 1.734375 -2.988281 2.039062 -2.09375 2.65625 -1.34375 C 3.28125 -0.601562 4.117188 -0.234375 5.171875 -0.234375 C 5.742188 -0.234375 6.265625 -0.40625 6.734375 -0.75 C 7.210938 -1.09375 7.585938 -1.507812 7.859375 -2 C 7.867188 -2.03125 7.894531 -2.046875 7.9375 -2.046875 L 8 -2.046875 C 8.03125 -2.046875 8.046875 -2.019531 8.046875 -1.96875 C 8.046875 -1.925781 8.035156 -1.882812 8.015625 -1.84375 Z M 7.28125 -0.203125 "/></g></g></g><g fill="#000000" fill-opacity="1"><g transform="translate(152.949803, 283.686556)"><g><path d="M 2.15625 -0.171875 C 2.15625 -0.203125 2.171875 -0.21875 2.203125 -0.21875 L 2.359375 -0.21875 C 2.710938 -0.21875 2.992188 -0.289062 3.203125 -0.4375 C 3.421875 -0.59375 3.53125 -0.769531 3.53125 -0.96875 L 3.53125 -6.96875 C 3.53125 -7.039062 3.515625 -7.082031 3.484375 -7.09375 C 3.453125 -7.101562 3.414062 -7.109375 3.375 -7.109375 L 1.296875 -7.109375 C 0.960938 -7.035156 0.742188 -6.78125 0.640625 -6.34375 C 0.578125 -6.101562 0.539062 -5.945312 0.53125 -5.875 C 0.519531 -5.8125 0.5 -5.78125 0.46875 -5.78125 L 0.375 -5.78125 C 0.351562 -5.78125 0.34375 -5.785156 0.34375 -5.796875 L 0.34375 -5.984375 L 0.546875 -7.671875 C 0.566406 -7.785156 0.601562 -7.84375 0.65625 -7.84375 C 0.707031 -7.84375 0.757812 -7.804688 0.8125 -7.734375 C 0.875 -7.660156 0.984375 -7.625 1.140625 -7.625 L 6.984375 -7.625 C 7.128906 -7.625 7.21875 -7.640625 7.25 -7.671875 C 7.289062 -7.710938 7.320312 -7.75 7.34375 -7.78125 C 7.375 -7.820312 7.410156 -7.84375 7.453125 -7.84375 C 7.503906 -7.84375 7.535156 -7.820312 7.546875 -7.78125 C 7.554688 -7.75 7.566406 -7.710938 7.578125 -7.671875 L 7.78125 -5.984375 L 7.78125 -5.796875 C 7.78125 -5.785156 7.769531 -5.78125 7.75 -5.78125 L 7.65625 -5.78125 C 7.625 -5.78125 7.601562 -5.804688 7.59375 -5.859375 C 7.53125 -6.222656 7.441406 -6.507812 7.328125 -6.71875 C 7.222656 -6.925781 7.054688 -7.054688 6.828125 -7.109375 L 4.75 -7.109375 C 4.695312 -7.109375 4.65625 -7.101562 4.625 -7.09375 C 4.601562 -7.082031 4.59375 -7.039062 4.59375 -6.96875 L 4.59375 -0.96875 C 4.59375 -0.769531 4.695312 -0.59375 4.90625 -0.4375 C 5.125 -0.289062 5.410156 -0.21875 5.765625 -0.21875 L 5.921875 -0.21875 C 5.953125 -0.21875 5.96875 -0.203125 5.96875 -0.171875 L 5.96875 -0.046875 C 5.96875 -0.015625 5.953125 0 5.921875 0 L 2.203125 0 C 2.171875 0 2.15625 -0.015625 2.15625 -0.046875 Z M 2.15625 -0.171875 "/></g></g></g><g fill="#000000" fill-opacity="1"><g transform="translate(161.071589, 283.686556)"><g><path d="M 1.359375 -6.765625 C 1.359375 -7.191406 1.109375 -7.40625 0.609375 -7.40625 C 0.535156 -7.40625 0.5 -7.421875 0.5 -7.453125 L 0.5 -7.578125 C 0.5 -7.609375 0.515625 -7.625 0.546875 -7.625 L 3.25 -7.625 C 3.28125 -7.625 3.296875 -7.609375 3.296875 -7.578125 L 3.296875 -7.453125 C 3.296875 -7.421875 3.210938 -7.40625 3.046875 -7.40625 C 2.890625 -7.40625 2.742188 -7.351562 2.609375 -7.25 C 2.484375 -7.15625 2.421875 -6.953125 2.421875 -6.640625 L 2.421875 -0.859375 C 2.421875 -0.429688 2.671875 -0.21875 3.171875 -0.21875 C 3.242188 -0.21875 3.28125 -0.203125 3.28125 -0.171875 L 3.28125 -0.046875 C 3.28125 -0.015625 3.265625 0 3.234375 0 L 0.53125 0 C 0.5 0 0.484375 -0.015625 0.484375 -0.046875 L 0.484375 -0.171875 C 0.484375 -0.203125 0.5625 -0.21875 0.71875 -0.21875 C 0.882812 -0.21875 1.03125 -0.265625 1.15625 -0.359375 C 1.289062 -0.460938 1.359375 -0.671875 1.359375 -0.984375 Z M 1.359375 -6.765625 "/></g></g></g><g fill="#000000" fill-opacity="1"><g transform="translate(164.851302, 283.686556)"><g><path d="M 6.9375 -0.46875 C 6.625 -0.269531 6.28125 -0.117188 5.90625 -0.015625 C 5.53125 0.0859375 5.203125 0.140625 4.921875 0.140625 C 4.328125 0.140625 3.757812 0.046875 3.21875 -0.140625 C 2.488281 -0.410156 1.898438 -0.804688 1.453125 -1.328125 C 0.878906 -1.992188 0.59375 -2.835938 0.59375 -3.859375 C 0.59375 -4.597656 0.78125 -5.269531 1.15625 -5.875 C 1.539062 -6.488281 2.066406 -6.972656 2.734375 -7.328125 C 3.398438 -7.679688 4.117188 -7.859375 4.890625 -7.859375 C 5.660156 -7.859375 6.347656 -7.6875 6.953125 -7.34375 C 7.566406 -7 8.054688 -6.523438 8.421875 -5.921875 C 8.796875 -5.328125 8.984375 -4.679688 8.984375 -3.984375 C 8.984375 -3.285156 8.800781 -2.617188 8.4375 -1.984375 C 8.070312 -1.359375 7.570312 -0.851562 6.9375 -0.46875 Z M 1.734375 -4.03125 C 1.734375 -3.4375 1.863281 -2.84375 2.125 -2.25 C 2.394531 -1.664062 2.773438 -1.1875 3.265625 -0.8125 C 3.765625 -0.4375 4.335938 -0.25 4.984375 -0.25 C 5.898438 -0.25 6.617188 -0.601562 7.140625 -1.3125 C 7.609375 -1.945312 7.84375 -2.757812 7.84375 -3.75 C 7.84375 -4.75 7.554688 -5.609375 6.984375 -6.328125 C 6.703125 -6.671875 6.359375 -6.945312 5.953125 -7.15625 C 5.554688 -7.375 5.148438 -7.484375 4.734375 -7.484375 C 4.328125 -7.484375 3.992188 -7.4375 3.734375 -7.34375 C 3.472656 -7.25 3.234375 -7.125 3.015625 -6.96875 C 2.804688 -6.8125 2.617188 -6.625 2.453125 -6.40625 C 2.296875 -6.195312 2.164062 -5.96875 2.0625 -5.71875 C 1.84375 -5.195312 1.734375 -4.632812 1.734375 -4.03125 Z M 1.734375 -4.03125 "/></g></g></g><g fill="#000000" fill-opacity="1"><g transform="translate(174.422248, 283.686556)"><g><path d="M 0.375 0 C 0.34375 0 0.328125 -0.015625 0.328125 -0.046875 L 0.328125 -0.171875 C 0.328125 -0.203125 0.34375 -0.21875 0.375 -0.21875 L 0.5 -0.21875 C 0.695312 -0.21875 0.832031 -0.234375 0.90625 -0.265625 C 1.175781 -0.398438 1.3125 -0.757812 1.3125 -1.34375 L 1.3125 -6.96875 C 1.3125 -7.207031 1.078125 -7.347656 0.609375 -7.390625 C 0.503906 -7.398438 0.429688 -7.40625 0.390625 -7.40625 C 0.347656 -7.40625 0.328125 -7.421875 0.328125 -7.453125 L 0.328125 -7.578125 C 0.328125 -7.609375 0.34375 -7.625 0.375 -7.625 L 2.34375 -7.625 L 7.484375 -1.953125 C 7.503906 -1.929688 7.515625 -1.914062 7.515625 -1.90625 C 7.523438 -1.90625 7.535156 -1.90625 7.546875 -1.90625 C 7.566406 -1.90625 7.578125 -1.921875 7.578125 -1.953125 L 7.578125 -5.671875 C 7.578125 -6.390625 7.515625 -6.859375 7.390625 -7.078125 C 7.273438 -7.296875 7.039062 -7.40625 6.6875 -7.40625 L 6.40625 -7.40625 C 6.375 -7.40625 6.359375 -7.421875 6.359375 -7.453125 L 6.359375 -7.578125 C 6.359375 -7.609375 6.375 -7.625 6.40625 -7.625 L 9.21875 -7.625 C 9.25 -7.625 9.265625 -7.609375 9.265625 -7.578125 L 9.265625 -7.453125 C 9.265625 -7.421875 9.207031 -7.40625 9.09375 -7.40625 C 8.988281 -7.40625 8.816406 -7.34375 8.578125 -7.21875 C 8.335938 -7.101562 8.21875 -6.953125 8.21875 -6.765625 L 8.21875 -0.15625 C 8.21875 -0.0703125 8.203125 -0.015625 8.171875 0.015625 C 8.148438 0.046875 8.097656 0.0625 8.015625 0.0625 C 7.941406 0.0625 7.882812 0.046875 7.84375 0.015625 C 7.800781 -0.015625 7.753906 -0.0625 7.703125 -0.125 L 2.125 -6.3125 C 2.09375 -6.34375 2.0625 -6.359375 2.03125 -6.359375 C 2.007812 -6.359375 2 -6.34375 2 -6.3125 L 2 -0.90625 C 2 -0.582031 2.257812 -0.367188 2.78125 -0.265625 C 2.925781 -0.234375 3.035156 -0.21875 3.109375 -0.21875 C 3.179688 -0.21875 3.21875 -0.203125 3.21875 -0.171875 L 3.21875 -0.046875 C 3.21875 -0.015625 3.207031 0 3.1875 0 Z M 0.375 0 "/></g></g></g><g fill="#000000" fill-opacity="1"><g transform="translate(183.868826, 283.686556)"><g/></g></g><g fill="#000000" fill-opacity="1"><g transform="translate(186.842849, 283.686556)"><g><path d="M 7.28125 -0.203125 C 7.257812 -0.171875 7.210938 -0.164062 7.140625 -0.1875 C 7.066406 -0.207031 6.984375 -0.21875 6.890625 -0.21875 C 6.796875 -0.21875 6.664062 -0.195312 6.5 -0.15625 C 6.332031 -0.113281 6.0625 -0.0546875 5.6875 0.015625 C 5.320312 0.0976562 4.988281 0.140625 4.6875 0.140625 C 4 0.140625 3.332031 -0.0195312 2.6875 -0.34375 C 2.039062 -0.664062 1.523438 -1.125 1.140625 -1.71875 C 0.753906 -2.3125 0.5625 -3 0.5625 -3.78125 C 0.5625 -4.5625 0.753906 -5.269531 1.140625 -5.90625 C 1.703125 -6.832031 2.550781 -7.4375 3.6875 -7.71875 C 4.050781 -7.8125 4.410156 -7.859375 4.765625 -7.859375 C 5.265625 -7.859375 5.851562 -7.773438 6.53125 -7.609375 C 6.738281 -7.554688 6.910156 -7.503906 7.046875 -7.453125 C 7.191406 -7.398438 7.28125 -7.375 7.3125 -7.375 L 7.46875 -7.40625 L 7.640625 -7.40625 C 7.679688 -7.40625 7.703125 -7.375 7.703125 -7.3125 L 7.703125 -5.640625 C 7.703125 -5.597656 7.671875 -5.578125 7.609375 -5.578125 C 7.546875 -5.578125 7.507812 -5.582031 7.5 -5.59375 C 7.488281 -5.613281 7.476562 -5.632812 7.46875 -5.65625 C 7.457031 -5.6875 7.441406 -5.710938 7.421875 -5.734375 C 7.410156 -5.765625 7.398438 -5.789062 7.390625 -5.8125 C 7.378906 -5.832031 7.375 -5.847656 7.375 -5.859375 C 6.832031 -6.941406 6.007812 -7.484375 4.90625 -7.484375 C 3.914062 -7.484375 3.140625 -7.164062 2.578125 -6.53125 C 2.015625 -5.90625 1.734375 -5.070312 1.734375 -4.03125 C 1.734375 -2.988281 2.039062 -2.09375 2.65625 -1.34375 C 3.28125 -0.601562 4.117188 -0.234375 5.171875 -0.234375 C 5.742188 -0.234375 6.265625 -0.40625 6.734375 -0.75 C 7.210938 -1.09375 7.585938 -1.507812 7.859375 -2 C 7.867188 -2.03125 7.894531 -2.046875 7.9375 -2.046875 L 8 -2.046875 C 8.03125 -2.046875 8.046875 -2.019531 8.046875 -1.96875 C 8.046875 -1.925781 8.035156 -1.882812 8.015625 -1.84375 Z M 7.28125 -0.203125 "/></g></g></g><g fill="#000000" fill-opacity="1"><g transform="translate(195.310703, 283.686556)"><g><path d="M 6.9375 -0.46875 C 6.625 -0.269531 6.28125 -0.117188 5.90625 -0.015625 C 5.53125 0.0859375 5.203125 0.140625 4.921875 0.140625 C 4.328125 0.140625 3.757812 0.046875 3.21875 -0.140625 C 2.488281 -0.410156 1.898438 -0.804688 1.453125 -1.328125 C 0.878906 -1.992188 0.59375 -2.835938 0.59375 -3.859375 C 0.59375 -4.597656 0.78125 -5.269531 1.15625 -5.875 C 1.539062 -6.488281 2.066406 -6.972656 2.734375 -7.328125 C 3.398438 -7.679688 4.117188 -7.859375 4.890625 -7.859375 C 5.660156 -7.859375 6.347656 -7.6875 6.953125 -7.34375 C 7.566406 -7 8.054688 -6.523438 8.421875 -5.921875 C 8.796875 -5.328125 8.984375 -4.679688 8.984375 -3.984375 C 8.984375 -3.285156 8.800781 -2.617188 8.4375 -1.984375 C 8.070312 -1.359375 7.570312 -0.851562 6.9375 -0.46875 Z M 1.734375 -4.03125 C 1.734375 -3.4375 1.863281 -2.84375 2.125 -2.25 C 2.394531 -1.664062 2.773438 -1.1875 3.265625 -0.8125 C 3.765625 -0.4375 4.335938 -0.25 4.984375 -0.25 C 5.898438 -0.25 6.617188 -0.601562 7.140625 -1.3125 C 7.609375 -1.945312 7.84375 -2.757812 7.84375 -3.75 C 7.84375 -4.75 7.554688 -5.609375 6.984375 -6.328125 C 6.703125 -6.671875 6.359375 -6.945312 5.953125 -7.15625 C 5.554688 -7.375 5.148438 -7.484375 4.734375 -7.484375 C 4.328125 -7.484375 3.992188 -7.4375 3.734375 -7.34375 C 3.472656 -7.25 3.234375 -7.125 3.015625 -6.96875 C 2.804688 -6.8125 2.617188 -6.625 2.453125 -6.40625 C 2.296875 -6.195312 2.164062 -5.96875 2.0625 -5.71875 C 1.84375 -5.195312 1.734375 -4.632812 1.734375 -4.03125 Z M 1.734375 -4.03125 "/></g></g></g><g fill="#000000" fill-opacity="1"><g transform="translate(204.881649, 283.686556)"><g><path d="M 2.703125 -0.21875 C 2.734375 -0.21875 2.75 -0.203125 2.75 -0.171875 L 2.75 -0.046875 C 2.75 -0.015625 2.734375 0 2.703125 0 L 0.1875 0 C 0.15625 0 0.140625 -0.015625 0.140625 -0.046875 L 0.140625 -0.171875 C 0.140625 -0.203125 0.15625 -0.21875 0.1875 -0.21875 C 0.78125 -0.21875 1.097656 -0.472656 1.140625 -0.984375 C 1.160156 -1.128906 1.175781 -1.375 1.1875 -1.71875 C 1.207031 -2.0625 1.253906 -2.800781 1.328125 -3.9375 C 1.410156 -5.070312 1.453125 -5.992188 1.453125 -6.703125 L 1.453125 -6.90625 C 1.453125 -7.050781 1.367188 -7.171875 1.203125 -7.265625 C 1.046875 -7.359375 0.925781 -7.40625 0.84375 -7.40625 C 0.769531 -7.40625 0.734375 -7.421875 0.734375 -7.453125 L 0.734375 -7.578125 C 0.734375 -7.609375 0.75 -7.625 0.78125 -7.625 L 2.34375 -7.625 C 2.40625 -7.613281 2.460938 -7.578125 2.515625 -7.515625 L 5.046875 -1.859375 C 5.066406 -1.828125 5.082031 -1.800781 5.09375 -1.78125 C 5.101562 -1.769531 5.128906 -1.765625 5.171875 -1.765625 C 5.210938 -1.765625 5.242188 -1.796875 5.265625 -1.859375 L 7.78125 -7.40625 C 7.851562 -7.550781 7.921875 -7.625 7.984375 -7.625 L 9.5625 -7.625 C 9.582031 -7.625 9.59375 -7.609375 9.59375 -7.578125 L 9.59375 -7.453125 C 9.59375 -7.421875 9.585938 -7.40625 9.578125 -7.40625 C 9.460938 -7.40625 9.328125 -7.367188 9.171875 -7.296875 C 8.929688 -7.191406 8.8125 -7.035156 8.8125 -6.828125 L 9.140625 -0.84375 C 9.140625 -0.65625 9.234375 -0.503906 9.421875 -0.390625 C 9.609375 -0.273438 9.851562 -0.21875 10.15625 -0.21875 C 10.1875 -0.21875 10.203125 -0.203125 10.203125 -0.171875 L 10.203125 -0.046875 C 10.203125 -0.015625 10.1875 0 10.15625 0 L 7.09375 0 C 7.0625 0 7.046875 -0.015625 7.046875 -0.046875 L 7.046875 -0.171875 C 7.046875 -0.203125 7.0625 -0.21875 7.09375 -0.21875 C 7.738281 -0.21875 8.0625 -0.375 8.0625 -0.6875 L 7.765625 -5.859375 C 7.765625 -5.890625 7.753906 -5.90625 7.734375 -5.90625 C 7.722656 -5.90625 7.710938 -5.890625 7.703125 -5.859375 L 5.015625 -0.03125 C 5.003906 -0.0078125 4.960938 0 4.890625 0 C 4.816406 0 4.773438 -0.015625 4.765625 -0.046875 L 2.125 -5.875 C 2.101562 -5.925781 2.082031 -5.953125 2.0625 -5.953125 C 2.039062 -5.953125 2.03125 -5.910156 2.03125 -5.828125 C 2.03125 -5.660156 1.984375 -4.878906 1.890625 -3.484375 C 1.804688 -2.085938 1.765625 -1.210938 1.765625 -0.859375 L 1.765625 -0.640625 C 1.804688 -0.429688 2.007812 -0.300781 2.375 -0.25 C 2.476562 -0.226562 2.585938 -0.21875 2.703125 -0.21875 Z M 2.703125 -0.21875 "/></g></g></g><g fill="#000000" fill-opacity="1"><g transform="translate(215.312358, 283.686556)"><g><path d="M 0.546875 0 C 0.515625 0 0.5 -0.0351562 0.5 -0.109375 L 0.5 -0.171875 C 0.5 -0.203125 0.515625 -0.21875 0.546875 -0.21875 C 0.585938 -0.21875 0.640625 -0.226562 0.703125 -0.25 C 0.773438 -0.269531 0.832031 -0.285156 0.875 -0.296875 C 1.238281 -0.378906 1.421875 -0.585938 1.421875 -0.921875 L 1.421875 -6.625 C 1.421875 -6.957031 1.359375 -7.171875 1.234375 -7.265625 C 1.117188 -7.359375 0.898438 -7.40625 0.578125 -7.40625 L 0.328125 -7.40625 C 0.253906 -7.40625 0.21875 -7.445312 0.21875 -7.53125 C 0.21875 -7.582031 0.238281 -7.613281 0.28125 -7.625 L 0.328125 -7.625 L 3.359375 -7.703125 L 3.90625 -7.703125 C 4.550781 -7.660156 5.085938 -7.425781 5.515625 -7 C 5.941406 -6.582031 6.15625 -6.078125 6.15625 -5.484375 C 6.15625 -4.898438 5.945312 -4.367188 5.53125 -3.890625 C 5.34375 -3.671875 5.132812 -3.492188 4.90625 -3.359375 C 4.675781 -3.234375 4.445312 -3.171875 4.21875 -3.171875 L 2.609375 -3.234375 L 2.5625 -3.234375 C 2.507812 -3.234375 2.484375 -3.207031 2.484375 -3.15625 L 2.484375 -0.9375 C 2.484375 -0.738281 2.535156 -0.59375 2.640625 -0.5 C 2.742188 -0.40625 2.972656 -0.332031 3.328125 -0.28125 C 3.367188 -0.269531 3.441406 -0.253906 3.546875 -0.234375 C 3.648438 -0.222656 3.71875 -0.21875 3.75 -0.21875 C 3.789062 -0.21875 3.8125 -0.203125 3.8125 -0.171875 L 3.8125 -0.046875 C 3.8125 -0.015625 3.800781 0 3.78125 0 Z M 2.90625 -7.4375 C 2.863281 -7.4375 2.816406 -7.429688 2.765625 -7.421875 C 2.722656 -7.421875 2.664062 -7.421875 2.59375 -7.421875 C 2.519531 -7.421875 2.484375 -7.390625 2.484375 -7.328125 L 2.484375 -3.6875 C 2.492188 -3.601562 2.53125 -3.5625 2.59375 -3.5625 L 3.140625 -3.53125 C 3.722656 -3.53125 4.191406 -3.722656 4.546875 -4.109375 C 4.898438 -4.503906 5.078125 -4.992188 5.078125 -5.578125 C 5.078125 -6.171875 4.90625 -6.628906 4.5625 -6.953125 C 4.21875 -7.273438 3.757812 -7.4375 3.1875 -7.4375 C 3.132812 -7.4375 3.085938 -7.4375 3.046875 -7.4375 C 3.003906 -7.4375 2.957031 -7.4375 2.90625 -7.4375 Z M 2.90625 -7.4375 "/></g></g></g><g fill="#000000" fill-opacity="1"><g transform="translate(221.860616, 283.686556)"><g><path d="M 2.875 -0.046875 C 2.875 -0.015625 2.859375 0 2.828125 0 L 0.078125 0 C 0.046875 0 0.03125 -0.015625 0.03125 -0.046875 L 0.03125 -0.171875 C 0.03125 -0.203125 0.0507812 -0.21875 0.09375 -0.21875 C 0.59375 -0.238281 0.925781 -0.5 1.09375 -1 L 3.3125 -7.390625 C 3.3125 -7.398438 3.3125 -7.410156 3.3125 -7.421875 L 3.25 -7.59375 C 3.25 -7.613281 3.253906 -7.625 3.265625 -7.625 L 4.359375 -7.625 C 4.359375 -7.625 4.363281 -7.617188 4.375 -7.609375 C 4.394531 -7.609375 4.40625 -7.597656 4.40625 -7.578125 L 6.703125 -1.15625 C 6.753906 -1.0625 6.796875 -0.972656 6.828125 -0.890625 C 6.859375 -0.816406 6.890625 -0.75 6.921875 -0.6875 C 7.015625 -0.53125 7.160156 -0.414062 7.359375 -0.34375 C 7.523438 -0.257812 7.675781 -0.21875 7.8125 -0.21875 C 7.84375 -0.21875 7.859375 -0.203125 7.859375 -0.171875 L 7.859375 -0.046875 C 7.859375 -0.015625 7.84375 0 7.8125 0 L 4.5 0 C 4.46875 0 4.453125 -0.015625 4.453125 -0.046875 L 4.453125 -0.171875 C 4.453125 -0.203125 4.519531 -0.21875 4.65625 -0.21875 C 4.789062 -0.226562 4.898438 -0.238281 4.984375 -0.25 C 5.484375 -0.300781 5.734375 -0.46875 5.734375 -0.75 C 5.734375 -0.78125 5.734375 -0.804688 5.734375 -0.828125 L 4.90625 -3.140625 C 4.90625 -3.140625 4.898438 -3.15625 4.890625 -3.1875 C 4.847656 -3.3125 4.769531 -3.375 4.65625 -3.375 L 2.75 -3.375 C 2.632812 -3.375 2.546875 -3.3125 2.484375 -3.1875 C 2.472656 -3.164062 2.46875 -3.148438 2.46875 -3.140625 L 1.65625 -0.78125 L 1.65625 -0.71875 C 1.65625 -0.625 1.707031 -0.539062 1.8125 -0.46875 C 2.03125 -0.300781 2.320312 -0.21875 2.6875 -0.21875 L 2.828125 -0.21875 C 2.859375 -0.21875 2.875 -0.203125 2.875 -0.171875 Z M 4.484375 -3.96875 C 4.546875 -3.96875 4.578125 -3.992188 4.578125 -4.046875 C 4.578125 -4.078125 4.566406 -4.113281 4.546875 -4.15625 L 3.75 -6.359375 C 3.707031 -6.460938 3.679688 -6.515625 3.671875 -6.515625 C 3.648438 -6.515625 3.617188 -6.460938 3.578125 -6.359375 L 2.828125 -4.15625 C 2.804688 -4.113281 2.796875 -4.070312 2.796875 -4.03125 C 2.796875 -3.988281 2.828125 -3.96875 2.890625 -3.96875 Z M 4.484375 -3.96875 "/></g></g></g><g fill="#000000" fill-opacity="1"><g transform="translate(229.739073, 283.686556)"><g><path d="M 0.375 0 C 0.34375 0 0.328125 -0.015625 0.328125 -0.046875 L 0.328125 -0.171875 C 0.328125 -0.203125 0.34375 -0.21875 0.375 -0.21875 L 0.5 -0.21875 C 0.695312 -0.21875 0.832031 -0.234375 0.90625 -0.265625 C 1.175781 -0.398438 1.3125 -0.757812 1.3125 -1.34375 L 1.3125 -6.96875 C 1.3125 -7.207031 1.078125 -7.347656 0.609375 -7.390625 C 0.503906 -7.398438 0.429688 -7.40625 0.390625 -7.40625 C 0.347656 -7.40625 0.328125 -7.421875 0.328125 -7.453125 L 0.328125 -7.578125 C 0.328125 -7.609375 0.34375 -7.625 0.375 -7.625 L 2.34375 -7.625 L 7.484375 -1.953125 C 7.503906 -1.929688 7.515625 -1.914062 7.515625 -1.90625 C 7.523438 -1.90625 7.535156 -1.90625 7.546875 -1.90625 C 7.566406 -1.90625 7.578125 -1.921875 7.578125 -1.953125 L 7.578125 -5.671875 C 7.578125 -6.390625 7.515625 -6.859375 7.390625 -7.078125 C 7.273438 -7.296875 7.039062 -7.40625 6.6875 -7.40625 L 6.40625 -7.40625 C 6.375 -7.40625 6.359375 -7.421875 6.359375 -7.453125 L 6.359375 -7.578125 C 6.359375 -7.609375 6.375 -7.625 6.40625 -7.625 L 9.21875 -7.625 C 9.25 -7.625 9.265625 -7.609375 9.265625 -7.578125 L 9.265625 -7.453125 C 9.265625 -7.421875 9.207031 -7.40625 9.09375 -7.40625 C 8.988281 -7.40625 8.816406 -7.34375 8.578125 -7.21875 C 8.335938 -7.101562 8.21875 -6.953125 8.21875 -6.765625 L 8.21875 -0.15625 C 8.21875 -0.0703125 8.203125 -0.015625 8.171875 0.015625 C 8.148438 0.046875 8.097656 0.0625 8.015625 0.0625 C 7.941406 0.0625 7.882812 0.046875 7.84375 0.015625 C 7.800781 -0.015625 7.753906 -0.0625 7.703125 -0.125 L 2.125 -6.3125 C 2.09375 -6.34375 2.0625 -6.359375 2.03125 -6.359375 C 2.007812 -6.359375 2 -6.34375 2 -6.3125 L 2 -0.90625 C 2 -0.582031 2.257812 -0.367188 2.78125 -0.265625 C 2.925781 -0.234375 3.035156 -0.21875 3.109375 -0.21875 C 3.179688 -0.21875 3.21875 -0.203125 3.21875 -0.171875 L 3.21875 -0.046875 C 3.21875 -0.015625 3.207031 0 3.1875 0 Z M 0.375 0 "/></g></g></g><g fill="#000000" fill-opacity="1"><g transform="translate(239.185651, 283.686556)"><g><path d="M 2.84375 0 C 2.71875 0 2.65625 -0.0351562 2.65625 -0.109375 L 2.65625 -0.15625 C 2.65625 -0.21875 2.707031 -0.253906 2.8125 -0.265625 C 2.925781 -0.273438 3 -0.285156 3.03125 -0.296875 C 3.300781 -0.316406 3.492188 -0.378906 3.609375 -0.484375 C 3.722656 -0.597656 3.78125 -0.757812 3.78125 -0.96875 L 3.78125 -2.765625 C 3.78125 -2.785156 3.773438 -2.8125 3.765625 -2.84375 L 1.546875 -6.375 C 1.203125 -6.925781 0.859375 -7.242188 0.515625 -7.328125 C 0.503906 -7.328125 0.472656 -7.332031 0.421875 -7.34375 C 0.378906 -7.351562 0.273438 -7.375 0.109375 -7.40625 C 0.046875 -7.414062 0.015625 -7.453125 0.015625 -7.515625 C 0.015625 -7.585938 0.046875 -7.625 0.109375 -7.625 L 3.203125 -7.625 C 3.253906 -7.625 3.28125 -7.585938 3.28125 -7.515625 C 3.28125 -7.441406 3.253906 -7.40625 3.203125 -7.40625 C 2.953125 -7.382812 2.789062 -7.359375 2.71875 -7.328125 C 2.53125 -7.265625 2.4375 -7.148438 2.4375 -6.984375 C 2.4375 -6.898438 2.460938 -6.820312 2.515625 -6.75 L 4.34375 -3.828125 C 4.375 -3.773438 4.394531 -3.738281 4.40625 -3.71875 C 4.414062 -3.707031 4.4375 -3.703125 4.46875 -3.703125 C 4.5 -3.703125 4.546875 -3.753906 4.609375 -3.859375 L 6.078125 -6.34375 C 6.117188 -6.425781 6.164062 -6.515625 6.21875 -6.609375 C 6.28125 -6.710938 6.3125 -6.816406 6.3125 -6.921875 C 6.3125 -7.179688 6.128906 -7.335938 5.765625 -7.390625 C 5.640625 -7.410156 5.570312 -7.429688 5.5625 -7.453125 C 5.550781 -7.472656 5.546875 -7.5 5.546875 -7.53125 C 5.546875 -7.59375 5.570312 -7.625 5.625 -7.625 L 8.15625 -7.625 C 8.207031 -7.625 8.234375 -7.597656 8.234375 -7.546875 C 8.234375 -7.492188 8.222656 -7.457031 8.203125 -7.4375 C 8.191406 -7.425781 8.171875 -7.414062 8.140625 -7.40625 C 8.117188 -7.394531 8.085938 -7.382812 8.046875 -7.375 C 8.015625 -7.375 7.945312 -7.363281 7.84375 -7.34375 C 7.59375 -7.28125 7.316406 -7.078125 7.015625 -6.734375 C 6.984375 -6.703125 6.96875 -6.679688 6.96875 -6.671875 L 4.828125 -2.984375 L 4.828125 -0.96875 C 4.828125 -0.78125 4.878906 -0.628906 4.984375 -0.515625 C 5.097656 -0.398438 5.285156 -0.328125 5.546875 -0.296875 C 5.804688 -0.265625 5.9375 -0.222656 5.9375 -0.171875 L 5.9375 -0.109375 C 5.9375 -0.0351562 5.878906 0 5.765625 0 Z M 2.84375 0 "/></g></g></g><g fill="#000000" fill-opacity="1"><g transform="translate(187.498635, 298.874003)"><g/></g></g></svg>